<svg xmlns="http://www.w3.org/2000/svg" width="64" height="64" viewBox="0 0 64 64" role="img" aria-labelledby="title">
  <title>Samir Seddiqi</title>
  <defs>
    <linearGradient id="metal" x1="14" y1="12" x2="50" y2="52" gradientUnits="userSpaceOnUse">
      <stop offset="0" stop-color="#f7f8fa" />
      <stop offset="0.18" stop-color="#b4b8c0" />
      <stop offset="0.34" stop-color="#ffffff" />
      <stop offset="0.58" stop-color="#969ba5" />
      <stop offset="0.76" stop-color="#f6f7fb" />
      <stop offset="1" stop-color="#838a95" />
    </linearGradient>
    <radialGradient id="glow" cx="50%" cy="48%" r="52%">
      <stop offset="0" stop-color="#ffffff" stop-opacity="0.34" />
      <stop offset="0.72" stop-color="#ffffff" stop-opacity="0.08" />
      <stop offset="1" stop-color="#ffffff" stop-opacity="0" />
    </radialGradient>
    <linearGradient id="panel" x1="12" y1="10" x2="52" y2="54" gradientUnits="userSpaceOnUse">
      <stop offset="0" stop-color="#24272d" />
      <stop offset="0.5" stop-color="#101216" />
      <stop offset="1" stop-color="#1c1f24" />
    </linearGradient>
    <filter id="soft" x="-20%" y="-20%" width="140%" height="140%">
      <feGaussianBlur stdDeviation="2.2" />
    </filter>
  </defs>
  <rect x="6" y="6" width="52" height="52" rx="15" fill="#05070d" />
  <rect x="8.5" y="8.5" width="47" height="47" rx="13.5" fill="url(#panel)" stroke="#d8dbe0" stroke-opacity="0.9" stroke-width="1.5" />
  <rect x="10.5" y="10.5" width="43" height="43" rx="12" fill="none" stroke="#f7f9fc" stroke-opacity="0.35" stroke-width="0.9" />
  <rect x="8.5" y="8.5" width="47" height="47" rx="13.5" fill="url(#glow)" />
  <circle cx="14.5" cy="14.5" r="1.6" fill="#ffffff" filter="url(#soft)" />
  <path
    d="M17.8 18.4 35.1 11.7 26.4 19.8 19.2 23.4c-2.6 1.2-2.7 3-.2 4.4l4.2 2.2c2.4 1.2 2.3 3.1-.2 4.4l-8.7 4.5 9.5-8.4 6.9-3.6c2.3-1.1 2.4-2.9.1-4.1l-4.4-2.3c-2.5-1.3-2.5-3.2.2-4.5Z"
    fill="url(#metal)"
    stroke="#f5f7fb"
    stroke-opacity="0.55"
    stroke-width="0.6"
  />
  <path
    d="M28.4 21.6 45.7 14.9 37 23 29.7 26.6c-2.6 1.2-2.7 3-.2 4.4l4.2 2.2c2.4 1.2 2.3 3.1-.2 4.4L24.8 42l9.5-8.4 6.9-3.6c2.3-1.1 2.4-2.9.1-4.1l-4.4-2.3c-2.5-1.3-2.5-3.2.2-4.5Z"
    fill="url(#metal)"
    stroke="#f5f7fb"
    stroke-opacity="0.55"
    stroke-width="0.6"
  />
</svg>
